<svg width="512" height="512" viewBox="0 0 512 512" fill="none" xmlns="http://www.w3.org/2000/svg">
  <rect width="512" height="512" rx="120" fill="url(#bg)" />
  <rect x="92" y="92" width="328" height="328" rx="72" fill="white" fill-opacity="0.96" />
  <rect x="126" y="132" width="260" height="54" rx="27" fill="#E7F0FF" />
  <circle cx="161" cy="159" r="12" fill="#3B82F6" />
  <circle cx="197" cy="159" r="12" fill="#93C5FD" />
  <circle cx="233" cy="159" r="12" fill="#BFDBFE" />
  <rect x="126" y="216" width="78" height="78" rx="24" fill="#DBEAFE" />
  <rect x="217" y="216" width="78" height="78" rx="24" fill="#3B82F6" fill-opacity="0.16" />
  <rect x="308" y="216" width="78" height="78" rx="24" fill="#DBEAFE" />
  <rect x="126" y="307" width="124" height="18" rx="9" fill="#93C5FD" />
  <rect x="126" y="341" width="168" height="18" rx="9" fill="#DBEAFE" />
  <rect x="308" y="307" width="78" height="52" rx="18" fill="#3B82F6" />
  <path d="M331 333.5L346 348L366 322" stroke="white" stroke-width="16" stroke-linecap="round" stroke-linejoin="round" />
  <defs>
    <linearGradient id="bg" x1="58" y1="42" x2="456" y2="470" gradientUnits="userSpaceOnUse">
      <stop stop-color="#0F172A" />
      <stop offset="0.52" stop-color="#2563EB" />
      <stop offset="1" stop-color="#60A5FA" />
    </linearGradient>
  </defs>
</svg>
